HIERARCHY
ROOT pelvis
{
  OFFSET 0 100 0
  CHANNELS 6 Xposition Yposition Zposition Zrotation Xrotation Yrotation
  JOINT pelvis_right_femur
  {
    OFFSET -10.78128 -3.44521 -0.5502486
    CHANNELS 3 Zrotation Xrotation Yrotation
    JOINT right_femur_tibia
    {
      OFFSET -0.8047443 -44.0398 -0.1307829
      CHANNELS 3 Zrotation Xrotation Yrotation
      JOINT right_tibia_foot
      {
        OFFSET 3.006224 -47.83518 -5
        CHANNELS 3 Zrotation Xrotation Yrotation
        End Site
        {
          OFFSET 0 -5 15
        }
      }
    }
  }
  JOINT pelvis_left_femur
  {
    OFFSET 10.78128 -3.44521 -0.5502486
    CHANNELS 3 Zrotation Xrotation Yrotation
    JOINT left_femur_tibia
    {
      OFFSET 0.8047443 -44.0398 -0.1307829
      CHANNELS 3 Zrotation Xrotation Yrotation
      JOINT left_tibia_foot
      {
        OFFSET -4.370144 -48.10324 -4.275266
        CHANNELS 3 Zrotation Xrotation Yrotation
        End Site
        {
          OFFSET 0 -5 15
        }
      }
    }
  }
  JOINT pelvis_spine1
  {
    OFFSET 0 6.468898 -3.129235
    CHANNELS 3 Zrotation Xrotation Yrotation
    JOINT spine1
    {
      OFFSET 0 23.15396 4.99043
      CHANNELS 3 Zrotation Xrotation Yrotation
      JOINT spine2
      {
        OFFSET 0 20.79997 -5.064912
        CHANNELS 3 Zrotation Xrotation Yrotation
        JOINT neck
        {
          OFFSET 0 14.38658 9.616178
          CHANNELS 3 Zrotation Xrotation Yrotation
          End Site
          {
            OFFSET 0 20 0
          }
        }
      }
      JOINT right_manubrium
      {
        OFFSET -5.722621 16.35077 3.967754
        CHANNELS 3 Zrotation Xrotation Yrotation
        JOINT right_clavicle
        {
          OFFSET -13.16364 1.694482 -4.693211
          CHANNELS 3 Zrotation Xrotation Yrotation
          JOINT right_humerus
          {
            OFFSET -28.5034 -0.3100689 -2.792744
            CHANNELS 3 Zrotation Xrotation Yrotation
            JOINT right_radius
            {
              OFFSET -25.15693 0.02248979 -1.271978
              CHANNELS 3 Zrotation Xrotation Yrotation
              End Site
              {
                OFFSET -15 0 0
              }
            }
          }
        }
      }
      JOINT left_manubrium
      {
        OFFSET 5.722621 16.35077 3.967754
        CHANNELS 3 Zrotation Xrotation Yrotation
        JOINT left_clavicle
        {
          OFFSET 13.16364 1.694482 -4.693211
          CHANNELS 3 Zrotation Xrotation Yrotation
          JOINT left_humerus
          {
            OFFSET 29.39168 -1.063119 -2.237045
            CHANNELS 3 Zrotation Xrotation Yrotation
            JOINT left_radius
            {
              OFFSET 24.59957 -0.9528479 0.9047498
              CHANNELS 3 Zrotation Xrotation Yrotation
              End Site
              {
                OFFSET 15 -0 -0
              }
            }
          }
        }
      }
    }
  }
}
MOTION
Frames: 9
Frame Time: 0.0416666666667
0 103.5113 0 1.980957 -1.442393 0.1005289 2.151237 -14.0921 6.744362 -0 36.02407 -0 -4.922729 -18.0491 -4.063475 -7.083983 13.40443 -25.23781 -0 4.343046 -0 -0.4458575 -20.83133 22.56407 -4.410354 -3.23857 3.650471 2.084146 7.445607 -7.829475 0.1472535 23.35402 8.188935 4.708649 -21.88118 7.640193 7.81201 -18.29603 11.23237 85.35083 38.34221 -21.65523 -0 0 15.93599 -7.634578 7.727178 4.925217 4.758954 -18.51358 -3.275592 -99.64446 40.75233 27.21391 0 0 -20.25624 -11.30464 15.99208 26.47579
0.1770254 103.2045 1.305846 1.456149 -1.333242 0.1374035 2.70535 -15.79054 6.857801 -0 36.74579 -0 -5.388676 -16.49338 -4.162864 -6.715185 13.32627 -24.52045 -0 4.659946 -0 -0.6002744 -20.92362 22.16795 -3.911569 -2.968936 3.568878 2.044967 7.632739 -7.912952 0.2721659 23.14408 8.104649 4.634456 -22.25236 7.738831 7.529001 -18.49588 11.22329 85.71786 37.75044 -21.6342 -0 0 15.9506 -7.911649 7.900841 5.010503 4.821587 -18.81425 -3.311327 -99.30369 40.11608 27.13881 0 0 -20.30183 -10.55164 16.07828 26.09988
0.3090828 102.8168 3.353481 -0.4303435 -0.3762875 0.1691927 4.679583 -23.35379 6.568458 -0 34.73357 -0 -6.805672 -11.25996 -4.075149 -5.23738 13.38465 -21.73713 -0 6.096819 -0 -2.104586 -21.9141 19.68325 -2.200849 -1.700937 3.114625 2.074817 7.842411 -8.250924 0.6703079 22.37681 8.10569 4.560561 -23.6645 8.265139 6.435428 -18.59724 11.06141 86.94827 36.08156 -21.83592 -0 0 15.41067 -9.133242 8.846018 5.337624 5.349167 -20.02521 -3.337078 -97.47768 37.98481 25.6893 0 0 -21.31778 -7.731622 16.39387 24.30296
0.3950213 102.2736 5.815482 -1.057569 -0.03250942 0.2780046 5.263249 -26.32207 6.101132 -0 32.00472 -0 -7.303907 -9.009843 -3.953319 -4.691661 13.72321 -20.31691 -0 6.93059 -0 -2.640329 -22.41769 18.40764 -1.708011 -1.191844 2.810691 2.261046 7.896113 -8.405385 0.8649588 22.13453 8.039229 4.349406 -24.32959 8.582526 5.639391 -18.47898 11.00778 87.67272 34.82822 -22.0391 -0 0 14.59109 -9.804666 9.127463 5.62063 5.498674 -20.58056 -3.328092 -95.9885 36.69137 24.14022 0 0 -22.12722 -6.067868 16.43348 22.70995
0.4284956 101.5231 8.986284 -1.632071 0.4837045 0.4971192 5.670534 -30.07857 4.864183 -0 26.72464 -0 -7.808131 -5.227627 -3.614257 -4.111576 14.45835 -18.14141 -0 8.262465 -0 -3.727219 -23.23954 16.2102 -1.279839 -0.5359235 2.31899 2.552912 8.012481 -8.683055 0.9800648 21.73614 8.101088 4.219434 -25.05479 8.824295 4.696681 -18.10524 11.05341 88.71806 33.44046 -22.62315 -0 0 13.01668 -11.34176 9.81548 6.414449 5.699089 -21.48592 -3.487147 -93.54529 34.90303 21.48895 0 0 -23.94865 -4.335175 16.05691 20.82329
0.4182283 100.4913 13.05273 -1.836359 0.6583196 0.8784207 5.447782 -33.12107 2.954932 -0 20.52251 -0 -8.11105 -0.186848 -3.296286 -3.801559 15.65855 -15.36258 -0 9.449974 -0 -4.763187 -24.126 13.7284 -1.102212 -0.04722766 1.789061 2.852152 8.448667 -9.030902 1.02144 21.2746 8.078698 4.001978 -25.54884 8.82463 3.559481 -17.78759 11.24306 90.12391 31.39992 -23.51179 -0 0 10.8815 -13.77535 10.59105 7.781269 5.796756 -22.67671 -3.947657 -90.33191 32.43374 18.08935 0 0 -26.70491 -2.767326 15.11619 18.84511
0.3798469 99.11019 18.37411 -1.519034 0.6799669 1.502841 4.543692 -35.57808 0.4751742 -0 11.72104 -0 -7.810261 6.576079 -3.335303 -3.918131 17.58009 -11.67592 -0 10.94555 -0 -5.899907 -25.20262 10.88161 -1.191874 0.1559567 1.40602 3.178115 9.27711 -9.527009 1.021519 20.50172 7.917229 3.7099 -25.83469 8.495259 2.269314 -17.5577 11.56 91.95861 28.5783 -25.02855 -0 0 8.039008 -17.27662 11.53345 9.854324 5.873616 -24.33316 -4.704993 -86.29441 28.88362 13.89442 0 0 -30.99621 -1.626681 13.08252 17.14828
0.3800364 97.44907 25.27182 -0.3782953 0.8131507 2.415019 3.420582 -36.29715 -1.078412 -0 0.8883457 -0 -6.070425 14.69423 -4.549714 -4.85014 19.79357 -7.339992 -0 13.27459 -0 -6.019235 -25.96042 9.059444 -1.668198 -0.4052339 1.74543 3.52483 10.88199 -10.25224 0.9740758 18.93987 7.448164 3.449578 -26.02115 7.555232 1.4449 -17.86192 12.09957 93.82879 25.38181 -27.31139 -0 0 5.083017 -21.15683 12.33381 12.48406 5.992253 -26.47276 -5.588654 -82.20148 23.67692 10.03479 0 0 -36.44637 -0.8734293 9.080308 15.92198
0.5828292 95.96167 33.52488 1.381227 1.917374 3.44271 3.634799 -33.98547 1.182235 0 -7.720305 0 -1.874455 21.71851 -7.503961 -6.391481 19.6243 -3.722282 -0 17.8355 -0 -3.643497 -24.59199 10.32153 -2.256235 -1.960768 3.669798 3.887604 13.63797 -11.21797 0.5716217 15.88191 6.902114 3.942026 -26.67192 5.564774 2.954644 -19.31918 13.17884 94.01557 24.10055 -29.84516 -0 0 4.368545 -23.16518 12.41081 14.75817 6.448051 -28.58844 -6.144819 -80.2668 17.21261 9.594859 0 0 -40.09161 0.1652992 2.189528 15.11691
